<svg xmlns="http://www.w3.org/2000/svg" version="1.0" width="300.000000pt" height="300.000000pt"
    viewBox="0 0 300.000000 300.000000" preserveAspectRatio="xMidYMid meet">
    <metadata>
        Created by potrace 1.10, written by Peter Selinger 2001-2011
    </metadata>
    <g transform="translate(0.000000,300.000000) scale(0.100000,-0.100000)" fill="#D8A0A6"
        stroke="none">
        <path
            d="M1387 2530 c-70 -22 -156 -85 -195 -142 -52 -76 -67 -132 -66 -243 0 -108 16 -176 58 -251 28 -51 26 -54 -17 -18 -71 60 -216 114 -305 114 l-44 0 7 -67 c25 -246 150 -435 356 -537 235 -116 496 -101 711 41 158 104 263 288 283 496 l7 67 -39 0 c-225 -1 -482 -207 -594 -478 -12 -29 -23 -51 -25 -49 -2 2 1 64 6 137 10 146 31 234 58 249 10 5 44 5 85 -1 86 -13 112 1 121 64 7 51 11 67 21 91 4 9 4 24 1 33 -4 10 3 23 19 36 33 26 32 35 -12 80 -36 36 -38 43 -44 121 -3 46 -14 97 -23 114 -23 45 -113 133 -152 149 -46 19 -148 17 -217 -6z m220 -31 c27 -13 45 -30 49 -43 14 -55 -67 -161 -186 -244 -128 -90 -165 -138 -176 -234 -6 -48 5 -148 22 -218 9 -36 -70 69 -107 142 -56 111 -75 262 -44 364 31 104 124 203 225 238 67 23 164 21 217 -5z m114 -105 c16 -27 23 -58 28 -125 6 -86 7 -90 45 -128 l38 -39 -27 -18 c-21 -13 -25 -22 -20 -42 3 -13 2 -29 -3 -35 -5 -7 -10 -19 -11 -27 0 -8 -4 -35 -8 -60 l-8 -45 -95 0 -95 0 -22 -45 c-28 -57 -46 -200 -41 -338 2 -56 0 -102 -3 -102 -4 0 -12 21 -18 48 -7 26 -39 100 -71 164 -43 85 -63 139 -74 198 -38 198 -10 279 127 372 118 80 217 190 217 243 0 26 17 17 41 -21z m-707 -464 c160 -60 298 -193 389 -375 34 -68 83 -212 76 -220 -7 -6 -162 23 -209 40 -134 47 -276 165 -337 280 -38 72 -68 169 -78 249 l-7 59 56 -7 c31 -3 80 -15 110 -26z m1131 -22 c-36 -307 -261 -531 -568 -568 l-58 -6 7 30 c12 57 62 176 105 249 55 94 202 241 285 284 67 36 150 61 202 62 l33 1 -6 -52z" />
        <path
            d="M335 1110 c3 -5 12 -10 20 -10 22 0 25 -25 25 -195 l0 -164 -27 -15 c-27 -15 -24 -15 52 -15 65 0 76 2 58 11 -23 11 -23 14 -23 188 0 173 1 178 23 193 21 15 18 16 -56 16 -50 1 -76 -3 -72 -9z" />
        <path
            d="M865 1110 c3 -5 12 -10 20 -10 22 0 25 -25 25 -195 l0 -164 -27 -16 c-26 -14 -19 -15 108 -13 131 3 137 4 184 33 68 42 98 100 93 181 -6 96 -62 161 -160 184 -58 13 -251 13 -243 0z m245 -32 c75 -38 109 -111 96 -201 -14 -94 -80 -146 -183 -147 l-53 0 0 185 0 185 48 0 c30 0 65 -9 92 -22z" />
        <path
            d="M545 986 c-35 -10 -37 -13 -17 -18 21 -6 22 -10 22 -121 0 -108 -1 -114 -22 -125 -19 -9 -9 -11 52 -10 41 0 67 2 57 5 -27 7 -37 45 -37 138 0 83 0 85 30 100 37 19 74 19 94 -1 13 -12 16 -38 16 -118 0 -97 -1 -104 -22 -114 -19 -9 -9 -11 52 -11 41 1 68 3 60 6 -33 12 -40 37 -40 134 0 82 -3 100 -21 123 -27 35 -82 36 -133 1 l-36 -24 0 24 c0 28 0 28 -55 11z" />
        <path
            d="M1370 962 c-106 -105 -32 -272 112 -254 30 4 92 58 83 72 -3 5 -16 -2 -30 -16 -47 -47 -135 -17 -154 53 -18 65 -20 63 89 63 62 0 100 4 100 10 0 24 -30 79 -51 94 -13 9 -43 16 -67 16 -38 0 -50 -6 -82 -38z m115 3 c14 -13 25 -33 25 -45 0 -18 -6 -20 -70 -20 l-70 0 13 33 c12 28 46 56 70 57 4 0 19 -11 32 -25z" />
        <path
            d="M1630 986 c-33 -12 -33 -13 -12 -20 21 -7 22 -12 22 -120 0 -107 -1 -113 -22 -124 -19 -9 -8 -11 57 -11 77 0 79 0 48 14 l-33 14 0 94 c0 86 2 95 24 116 l25 23 27 -21 c25 -20 29 -20 43 -6 21 21 3 49 -34 53 -19 3 -36 -5 -56 -24 l-29 -28 0 27 c0 30 -8 32 -60 13z" />
        <path
            d="M1870 986 c-33 -12 -33 -13 -12 -20 21 -7 22 -12 22 -116 0 -101 -2 -110 -22 -124 -21 -15 -19 -16 47 -16 66 0 68 1 47 16 -20 14 -22 23 -22 114 l0 99 31 16 c42 22 81 16 96 -15 17 -33 17 -181 1 -202 -7 -9 -20 -18 -28 -21 -8 -3 19 -5 60 -6 60 0 71 2 53 11 -20 10 -22 19 -25 115 l-3 105 27 14 c36 18 73 18 92 -2 13 -12 16 -38 16 -118 0 -97 -1 -104 -22 -114 -19 -9 -9 -11 52 -11 67 -1 72 1 50 12 -24 12 -25 17 -30 124 -4 91 -9 115 -24 132 -26 29 -83 28 -128 -3 l-35 -23 -21 23 c-29 33 -84 32 -129 -2 l-33 -25 0 25 c0 29 -9 30 -60 12z" />
        <path
            d="M2424 966 c-38 -38 -41 -48 -19 -66 20 -16 45 3 45 34 0 28 18 46 46 46 28 0 44 -20 51 -63 5 -35 5 -36 -38 -47 -60 -16 -115 -46 -123 -65 -12 -32 -6 -65 15 -86 26 -26 78 -21 121 11 22 16 28 18 28 6 0 -23 35 -38 63 -27 34 13 44 32 15 28 -22 -2 -23 2 -25 58 -7 176 -21 205 -99 205 -39 0 -51 -5 -80 -34z m126 -150 c0 -51 -2 -55 -33 -69 -41 -20 -75 -12 -83 19 -10 38 2 53 58 79 29 14 54 25 56 25 1 0 2 -24 2 -54z" />
    </g>
</svg>