<svg version="1.1" id="Layer_1" xmlns="http://www.w3.org/2000/svg" xmlns:xlink="http://www.w3.org/1999/xlink" x="0px" y="0px"
	 width="100%" viewBox="0 0 1024 1024" enable-background="new 0 0 1024 1024" xml:space="preserve">
<path fill="#FFFFFF" opacity="1.000000" stroke="none" 
	d="
M599.000000,1025.000000 
	C399.333344,1025.000000 200.166672,1025.000000 1.000000,1025.000000 
	C1.000000,683.666687 1.000000,342.333344 1.000000,1.000000 
	C342.333344,1.000000 683.666687,1.000000 1025.000000,1.000000 
	C1025.000000,342.333344 1025.000000,683.666687 1025.000000,1025.000000 
	C883.166687,1025.000000 741.333313,1025.000000 599.000000,1025.000000 
M171.812561,228.694946 
	C169.893738,240.260483 166.331329,251.822159 166.304230,263.392120 
	C165.936356,420.456360 166.052231,577.521729 166.102448,734.586792 
	C166.103546,738.057373 166.736389,741.527649 166.987717,745.862061 
	C167.019485,747.027039 166.923813,748.211914 167.101486,749.354187 
	C173.161591,788.319092 192.086960,819.325562 224.963989,841.284851 
	C246.982712,855.991577 271.494110,863.379456 298.953522,863.974487 
	C416.153534,863.981689 533.353577,863.998291 650.553589,863.988586 
	C675.355225,863.986572 700.156799,863.888733 725.835266,863.976257 
	C732.269043,863.273987 738.799561,863.055237 745.120544,861.789490 
	C780.880127,854.628784 810.454285,837.262939 831.926514,807.404907 
	C846.998291,786.446899 855.302795,762.970703 856.047668,736.053894 
	C856.055786,577.309265 856.163086,418.564453 855.842346,259.820496 
	C855.821655,249.567947 852.501709,239.322067 850.648071,228.348282 
	C833.851868,178.027802 790.150696,144.153473 736.238953,140.058060 
	C735.503235,140.094116 734.767578,140.130157 733.231750,140.008011 
	C732.149170,140.045563 731.066650,140.083115 729.060059,139.958374 
	C727.062439,139.937912 725.064758,139.899658 723.067139,139.899490 
	C608.522339,139.890182 493.977600,139.863739 379.432831,139.891159 
	C348.969543,139.898453 318.506348,140.072037 287.190521,140.048019 
	C263.518311,142.042816 241.541183,149.090775 221.736450,162.353897 
	C197.640015,178.491150 180.756973,200.149826 171.812561,228.694946 
z"/>
<path fill="#02AECB" opacity="1.000000" stroke="none" 
	d="
M298.028809,863.833130 
	C271.494110,863.379456 246.982712,855.991577 224.963989,841.284851 
	C192.086960,819.325562 173.161591,788.319092 167.101486,749.354187 
	C166.923813,748.211914 167.019485,747.027039 167.304932,745.118408 
	C167.741791,742.393127 167.965988,740.411438 167.966202,738.429810 
	C167.983505,578.296509 167.966522,418.163208 168.058868,258.029938 
	C168.061890,252.779221 169.068085,247.515991 169.782394,242.282578 
	C170.434494,237.505081 171.325500,232.760178 172.111191,228.000916 
	C180.756973,200.149826 197.640015,178.491150 221.736450,162.353897 
	C241.541183,149.090775 263.518311,142.042816 287.932983,140.370605 
	C290.160400,140.795776 291.645294,140.988037 293.130219,140.988174 
	C437.000061,141.001160 580.869934,141.002686 724.739746,140.962479 
	C726.487915,140.961990 728.235962,140.413422 729.984070,140.120682 
	C731.066650,140.083115 732.149170,140.045563 733.819946,140.303635 
	C735.258545,140.474243 736.109009,140.349228 736.959473,140.224213 
	C790.150696,144.153473 833.851868,178.027802 850.461121,228.995270 
	C850.411865,230.927734 850.532043,232.215363 850.690063,233.498337 
	C852.122925,245.132217 854.792908,256.763062 854.813965,268.398956 
	C855.092651,422.506927 854.995972,576.615601 855.035339,730.724121 
	C855.035889,732.807373 855.581055,734.890564 855.872009,736.973755 
	C855.302795,762.970703 846.998291,786.446899 831.926514,807.404907 
	C810.454285,837.262939 780.880127,854.628784 745.120544,861.789490 
	C738.799561,863.055237 732.269043,863.273987 725.080688,863.643372 
	C722.674988,863.206970 721.023926,863.013062 719.372864,863.012878 
	C580.679932,862.998901 441.986969,862.996948 303.294037,863.034607 
	C301.538910,863.035095 299.783875,863.555420 298.028809,863.833130 
M470.486298,518.515015 
	C470.486298,518.515015 470.377655,518.403076 470.544037,517.849915 
	C470.222748,517.760376 469.901459,517.670837 469.528442,517.473816 
	C469.528442,517.473816 469.426788,517.411316 469.562195,516.843323 
	C469.235474,516.743591 468.908752,516.643860 468.559021,516.444763 
	C468.559021,516.444763 468.462433,516.412231 468.573120,515.837280 
	C468.243591,515.739319 467.914093,515.641357 467.563477,515.446716 
	C467.563477,515.446716 467.464905,515.437500 467.612061,514.765320 
	C466.941223,514.306702 466.270416,513.848083 465.825958,513.295593 
	C465.825958,513.295593 465.607391,513.375366 465.618958,512.792053 
	C465.287537,512.657471 464.956085,512.522949 465.019348,512.138611 
	C465.019348,512.138611 464.613159,512.367798 464.625641,511.787109 
	C464.300903,511.632660 463.976166,511.478241 463.900208,511.004974 
	C463.900208,511.004974 463.676727,511.341858 463.643738,510.764954 
	C463.317383,510.611755 462.991058,510.458557 462.908691,510.050079 
	C462.908691,510.050079 462.695770,510.331818 462.649445,509.757263 
	C462.322662,509.604919 461.995850,509.452576 461.902374,509.029785 
	C461.902374,509.029785 461.699005,509.323395 461.660034,508.754517 
	C461.346405,508.578003 461.032776,508.401459 460.862335,508.124634 
	C460.862335,508.124634 460.773560,508.275238 460.681580,507.720612 
	C460.368408,507.547211 460.055267,507.373840 459.861908,507.140991 
	C459.861908,507.140991 459.803711,507.261414 459.700745,506.620789 
	C459.054291,506.111328 458.407867,505.601868 457.234436,504.825653 
	C456.465912,503.944397 455.697357,503.063141 454.776642,501.667236 
	C454.501129,501.449982 454.225616,501.232758 453.276978,500.755341 
	C453.076691,500.622040 452.876434,500.488739 452.059448,500.223145 
	C451.712494,501.236359 451.063629,502.249176 451.062195,503.262878 
	C451.010193,539.903442 450.997894,576.544189 451.106842,613.184509 
	C451.110535,614.431824 452.417053,615.675171 453.025604,616.979675 
	C453.025604,616.979675 453.077789,616.884705 453.203888,617.695129 
	C453.844421,618.114746 454.481537,618.893677 455.126007,618.899841 
	C464.230011,618.986633 473.336426,619.046204 482.438049,618.880371 
	C483.616364,618.858887 484.771088,617.541504 485.978210,615.909973 
	C485.982727,590.172607 486.012207,564.435181 485.940125,538.697998 
	C485.934875,536.823425 485.193054,534.950989 485.174347,532.794373 
	C484.717407,532.559082 484.260498,532.323792 483.300629,531.855530 
	C482.845581,531.286804 482.390503,530.718140 481.896362,529.486267 
	C481.432404,529.242920 480.968445,528.999634 480.375183,528.616882 
	C480.375183,528.616882 480.239166,528.484070 480.472687,527.884949 
	C479.950409,527.613708 479.428131,527.342468 478.992798,527.008972 
	C478.992798,527.008972 478.929688,527.095398 478.888275,526.423462 
	C478.227356,525.961670 477.566467,525.499878 476.465393,524.874329 
	C476.182312,524.695312 476.013824,524.440552 475.777222,523.617004 
	C475.493011,523.424805 475.208832,523.232544 474.995209,523.005371 
	C474.995209,523.005371 474.949402,523.069397 474.896912,522.408997 
	C474.246277,521.952087 473.595642,521.495117 473.000671,521.002930 
	C473.000671,521.002930 472.960480,521.055237 472.916107,520.407654 
	C472.451172,520.154236 471.986237,519.900818 471.432526,519.514832 
	C471.432526,519.514832 471.327759,519.394531 471.525909,518.861084 
	C471.212982,518.785400 470.900085,518.709656 470.486298,518.515015 
M283.667633,246.274765 
	C283.462677,246.585342 283.257721,246.895905 283.049255,247.632187 
	C283.049255,247.632187 282.876862,248.021454 282.333740,248.644775 
	C282.222626,249.462006 282.014221,250.279236 282.014130,251.096481 
	C281.999573,371.558472 281.998047,492.020477 282.042206,612.482483 
	C282.042511,613.312744 282.681335,614.142700 283.649292,615.441528 
	C287.804962,618.388123 292.091614,618.016296 297.242004,615.569153 
	C297.495483,613.971619 297.970428,612.374146 297.970886,610.776550 
	C298.005798,491.540283 298.008209,372.304016 297.953552,253.067795 
	C297.952759,251.388535 297.198761,249.709625 296.945892,248.035431 
	C296.945892,248.035431 296.920990,248.183014 296.761200,247.665588 
	C296.480621,247.452255 296.200043,247.238922 295.989563,247.011093 
	C295.989563,247.011093 295.962952,247.077530 295.818512,246.278091 
	C291.892426,246.262192 287.966309,246.246292 284.043243,246.062241 
	C284.043243,246.062241 284.209320,246.088837 283.667633,246.274765 
M504.820618,616.549194 
	C512.871948,616.819458 520.922791,617.169739 528.975403,617.211792 
	C529.637634,617.215271 530.873962,615.132324 530.890930,614.004395 
	C531.046265,603.692078 531.044495,593.375977 530.929871,583.062744 
	C530.915161,581.733887 530.347595,580.070374 529.440735,579.145447 
	C521.181885,570.721680 512.790955,562.427429 503.668457,554.482788 
	C503.448792,555.257812 503.038971,556.032349 503.037354,556.807861 
	C502.998596,575.395508 502.981018,593.983276 503.053406,612.570740 
	C503.058014,613.755615 503.822113,614.937500 504.820618,616.549194 
M504.804504,333.935883 
	C512.592102,326.729614 520.488220,319.634552 528.076416,312.224152 
	C529.611511,310.725037 530.742126,308.043488 530.769897,305.890472 
	C530.994690,288.425262 530.925232,270.956116 530.917542,253.488174 
	C530.913879,245.270203 531.841675,245.968948 523.401733,246.105331 
	C516.998352,246.208786 510.601593,246.720886 503.516083,247.541702 
	C503.345215,248.340134 503.025757,249.138397 503.024963,249.936981 
	C502.998016,276.748840 502.986938,303.560760 503.047974,330.372467 
	C503.050720,331.572113 503.748749,332.770172 504.804504,333.935883 
M452.739716,387.818268 
	C462.984314,377.158203 473.282654,366.548615 483.408112,355.776550 
	C484.731720,354.368378 485.886017,352.134247 485.907867,350.268463 
	C486.295013,317.193665 486.454224,284.116272 486.786591,251.040665 
	C486.826843,247.034027 485.212677,245.898788 481.416595,245.981262 
	C471.779175,246.190643 462.134705,246.072144 451.709106,246.464584 
	C451.473206,247.899612 451.032349,249.334488 451.031128,250.769714 
	C450.993317,294.971313 450.987549,339.172974 451.043274,383.374542 
	C451.045197,384.910675 451.727020,386.445953 452.739716,387.818268 
M382.039948,248.359436 
	C381.777008,248.197784 381.514038,248.036133 381.251129,247.874512 
	C381.174988,248.000366 381.034882,248.125092 381.032593,248.252228 
	C381.009033,249.581238 381.000946,250.910614 381.000916,252.239899 
	C380.999908,371.199066 381.000000,490.158203 381.000000,609.117371 
	C381.000000,610.721802 381.000000,612.326172 381.000000,613.930603 
	C381.229248,613.939758 381.458496,613.948914 381.687744,613.958008 
	C381.913940,611.382507 382.140106,608.807007 382.649567,607.078430 
	C382.669434,608.559509 382.673431,610.040955 382.712708,611.521484 
	C382.780701,614.084106 382.109497,617.463562 386.160828,617.172913 
	C389.889191,616.905334 395.202484,619.793274 397.016235,613.271912 
	C397.342651,611.843872 397.954376,610.415955 397.954895,608.987793 
	C397.998718,490.860107 397.995056,372.732422 397.994812,254.604721 
	C397.994781,253.145554 397.994781,251.686401 397.994781,250.227234 
	C397.667664,250.233841 397.340546,250.240433 397.013428,250.247040 
	C397.013428,252.051712 397.013367,253.856400 397.013428,255.661072 
	C397.014526,288.816803 397.027557,321.972534 396.986603,355.128235 
	C396.984222,357.071075 396.546143,359.013367 396.128876,360.040833 
	C396.111908,324.290222 396.085297,288.539612 396.096985,252.789017 
	C396.097870,250.050964 396.318237,246.654861 392.959625,246.454269 
	C389.428009,246.243347 384.890320,243.724091 382.039948,248.359436 
M361.927490,247.569046 
	C353.251862,243.292557 348.981018,245.716675 348.980438,254.926102 
	C348.974487,345.495972 348.969086,436.065857 348.966187,526.635742 
	C348.965302,554.938782 348.931061,583.242004 349.072784,611.544373 
	C349.081818,613.353760 350.171661,616.459106 351.291992,616.726379 
	C355.231140,617.666199 359.550293,618.504272 363.561584,615.194092 
	C363.707336,613.585266 363.979218,611.976501 363.980286,610.367615 
	C364.004974,573.750122 364.000610,537.132568 364.000488,500.515076 
	C364.000244,418.458557 364.010925,336.402039 363.933777,254.345596 
	C363.931793,252.251694 362.962860,250.158707 361.927490,247.569046 
M331.236237,615.567322 
	C331.490875,614.137207 331.968048,612.707092 331.968445,611.276917 
	C332.001984,491.697174 332.003204,372.117432 331.944305,252.537735 
	C331.943573,251.046600 331.139374,249.555847 330.062714,247.692581 
	C327.544586,247.182297 325.025513,246.236206 322.508514,246.241638 
	C314.223969,246.259521 315.009766,245.210373 315.009399,253.681900 
	C315.004761,368.579651 315.007568,483.477417 315.010406,598.375183 
	C315.010529,603.204224 314.779572,608.054260 315.185394,612.849792 
	C315.311829,614.343994 317.141418,616.855347 318.263123,616.895508 
	C322.304596,617.040283 326.376709,616.329163 331.236237,615.567322 
M244.706100,250.300217 
	C244.470734,252.245361 244.031540,254.190338 244.029907,256.135681 
	C243.991440,302.289154 244.000031,348.442627 244.000000,394.596130 
	C243.999939,465.909088 243.993439,537.222046 244.045227,608.534973 
	C244.046280,609.977478 244.726318,611.419373 245.608887,613.345032 
	C248.264786,617.209045 253.678146,618.721863 258.785095,616.933777 
	C262.946167,615.476929 263.024048,612.041504 263.022797,608.372559 
	C262.984283,494.831635 262.992188,381.290680 262.992859,267.749756 
	C262.992889,262.588806 263.293304,257.400879 262.834656,252.280975 
	C262.665039,250.387375 261.126099,247.901093 259.487152,246.993683 
	C255.219421,244.630814 248.937973,246.165298 244.706100,250.300217 
M432.082123,249.526733 
	C428.192566,244.598541 419.312134,244.386581 413.838379,249.422134 
	C413.559326,251.504791 413.037323,253.587341 413.036285,255.670135 
	C412.994781,338.073761 413.000336,420.477386 413.000336,502.881012 
	C413.000336,538.006592 412.974823,573.132263 413.076172,608.257568 
	C413.081604,610.125732 414.161621,611.990784 415.060120,614.425354 
	C420.398560,619.613037 429.158875,618.792175 433.363464,613.119629 
	C433.576050,611.573425 433.971985,610.027527 433.974030,608.481018 
	C434.010925,580.343994 434.000092,552.206909 434.000214,524.069824 
	C434.000610,434.830292 434.012054,345.590759 433.935791,256.351288 
	C433.934021,254.273300 432.946228,252.196152 432.082123,249.526733 
M772.456238,789.468506 
	C772.635254,788.674988 772.970398,787.881531 772.970886,787.087891 
	C772.998230,746.364136 773.010315,705.640320 772.937073,664.916687 
	C772.934814,663.639832 772.018921,662.364685 771.040894,660.615601 
	C769.038147,659.627869 767.096619,657.975098 765.020508,657.783752 
	C759.899048,657.311707 754.712280,657.357971 749.558411,657.479004 
	C743.537842,657.620483 742.024780,659.327393 742.022156,665.398132 
	C742.011963,689.219116 742.017334,713.040161 742.016968,736.861145 
	C742.016968,738.548279 742.017029,740.235352 742.017029,741.922485 
	C739.843323,740.622009 738.741760,739.216309 737.726929,737.750610 
	C720.804932,713.308105 703.814331,688.912292 687.046509,664.364380 
	C683.673218,659.425903 679.370056,657.267517 673.638977,657.354614 
	C669.142639,657.423035 664.646790,657.522705 660.150635,657.600464 
	C653.478821,657.715942 652.802246,658.334412 652.800171,665.081421 
	C652.787842,705.560364 652.888550,746.039673 652.716431,786.517822 
	C652.694519,791.674866 655.276367,793.525818 659.490540,793.768738 
	C665.134521,794.093994 670.823242,794.066833 676.470764,793.770996 
	C680.796875,793.544312 683.181885,791.506104 683.131653,786.440063 
	C682.900330,763.121094 683.026123,739.798645 683.023865,716.477417 
	C683.023743,714.726318 683.023865,712.975220 683.023865,711.224121 
	C685.235168,712.351257 686.517761,713.746338 687.590210,715.287598 
	C703.145752,737.642944 718.980103,759.813843 734.046753,782.494568 
	C739.594971,790.846436 745.734802,795.729492 756.054504,793.911133 
	C757.990112,793.570068 760.175720,794.349121 762.012756,793.812683 
	C765.352051,792.837585 768.516357,791.263184 772.456238,789.468506 
M774.026917,619.514832 
	C781.563416,626.649841 793.059631,628.171997 802.650513,623.304749 
	C816.196533,616.430237 819.415405,600.209595 808.663208,588.519409 
	C798.081726,577.014954 786.532471,566.395874 775.325378,555.472900 
	C763.917847,544.354614 752.409790,533.339478 741.754333,523.059265 
	C751.248657,513.055176 760.307983,503.071442 769.847168,493.569611 
	C781.651794,481.811279 788.517944,467.664062 789.821228,451.300629 
	C791.511963,430.073120 783.966736,411.849792 768.954407,396.847198 
	C745.507263,373.415131 721.927551,350.115601 698.380493,326.783722 
	C690.691406,319.164948 683.530884,310.858948 675.088074,304.183167 
	C648.499512,283.159180 609.889038,285.395142 585.381104,308.946594 
	C564.002014,329.491272 542.792175,350.212921 521.602539,370.953461 
	C510.185150,382.128876 498.017517,392.719330 487.854095,404.957062 
	C465.666779,431.672668 468.099548,470.481812 492.579803,494.394165 
	C521.532532,522.675232 549.513000,551.948914 578.127075,580.580261 
	C599.304321,601.770203 624.641052,606.438721 652.904114,598.315674 
	C666.463806,594.418518 676.976440,586.013672 686.548340,576.050354 
	C694.106689,568.183044 701.944458,560.584106 709.415894,553.108276 
	C731.038330,575.333252 752.281738,597.168701 774.026917,619.514832 
M533.653809,699.124146 
	C523.186768,727.346436 512.706909,755.563904 502.262695,783.794678 
	C499.972107,789.986206 502.511230,793.687866 509.269958,793.885559 
	C514.264282,794.031677 519.267151,793.905701 524.265991,793.865967 
	C529.162231,793.827087 532.358276,791.486206 533.993347,786.828918 
	C535.856445,781.522278 538.095520,776.338867 539.757080,770.973694 
	C540.769470,767.705078 542.448975,766.690979 545.806946,766.731201 
	C560.302612,766.904968 574.803040,766.919434 589.298096,766.722961 
	C592.638062,766.677673 594.038879,768.032837 595.021606,770.903076 
	C596.894531,776.373169 598.981995,781.770874 601.030457,787.179626 
	C602.746826,791.711609 605.903503,794.074768 610.926331,793.929382 
	C616.087646,793.779968 621.262939,794.051819 626.420349,793.846313 
	C632.281799,793.612610 634.725830,789.880676 632.743286,784.448486 
	C630.192688,777.459595 627.536926,770.509155 624.937683,763.537903 
	C612.631775,730.533386 600.287903,697.542847 588.075806,664.503601 
	C586.422424,660.030579 583.793701,657.680481 578.910095,657.757629 
	C571.584595,657.873352 564.252319,657.897522 556.929077,657.715515 
	C551.048401,657.569519 547.786682,660.385071 545.895264,665.774475 
	C542.060852,676.699829 537.941833,687.525208 533.653809,699.124146 
M292.075714,703.483154 
	C283.782867,695.717102 285.783142,687.171143 296.708618,683.788574 
	C297.960663,683.400940 299.268005,683.124084 300.570160,682.976624 
	C311.706116,681.715881 321.967468,684.301331 331.524475,690.035034 
	C337.110474,693.386353 338.452179,693.229370 342.163025,687.949829 
	C344.821381,684.167725 347.213867,680.160522 349.348450,676.057800 
	C352.399109,670.194336 351.794434,668.323975 346.117126,665.341003 
	C331.796753,657.817078 316.452148,655.141907 300.402252,655.958191 
	C289.535156,656.510986 279.570374,659.694580 270.790070,666.216980 
	C252.184540,680.037964 250.352676,709.375061 267.947174,724.009155 
	C274.255066,729.255615 282.431335,732.504456 290.139557,735.752014 
	C298.636475,739.331787 307.680634,741.593079 316.281860,744.952454 
	C321.287750,746.907654 324.203735,751.124390 323.857483,756.727539 
	C323.533508,761.970093 320.052216,765.388733 313.742340,766.961731 
	C301.049103,770.126099 289.542877,766.127869 278.243500,760.880493 
	C274.232880,759.017944 269.410828,755.306946 266.174530,756.320496 
	C262.472687,757.479675 260.099030,762.940063 257.205261,766.576965 
	C256.486938,767.479736 255.973648,768.548889 255.391296,769.556152 
	C251.675369,775.983154 252.116669,777.949829 258.289368,782.307556 
	C259.235504,782.975464 260.247650,783.551941 261.242706,784.148254 
	C275.837036,792.893860 291.784576,795.682983 308.555817,795.005920 
	C320.449677,794.525818 331.366577,791.341553 340.976166,784.078674 
	C357.636353,771.487061 361.891449,742.346619 343.755676,728.412781 
	C336.241364,722.639465 327.542664,718.210876 318.933044,714.115845 
	C310.475311,710.093018 301.447449,707.268860 292.075714,703.483154 
M367.863678,715.338440 
	C367.916718,723.283081 367.192596,731.326050 368.182404,739.152222 
	C370.333221,756.158875 378.189087,770.400269 391.990875,780.801880 
	C410.090912,794.442871 430.639771,798.648743 452.761566,794.750854 
	C464.017944,792.767395 474.251556,788.019775 482.926819,780.387451 
	C488.337341,775.627502 488.694092,771.995300 484.155121,766.742249 
	C481.226501,763.352844 477.889526,760.314697 474.714783,757.140015 
	C471.585114,754.010376 468.522034,752.819458 465.240601,757.105713 
	C464.269012,758.374878 462.658905,759.175110 461.291962,760.118652 
	C441.448517,773.814758 414.545044,767.773071 404.243927,747.235901 
	C399.545746,737.869202 398.877075,727.898865 399.948303,717.607666 
	C401.932861,698.541809 417.743011,684.217285 436.877014,683.909424 
	C448.430054,683.723511 457.672577,688.556274 466.190063,695.637451 
	C470.489410,699.211731 473.139954,699.182007 477.060822,695.347351 
	C479.670807,692.794800 482.100952,690.019165 484.336548,687.130493 
	C490.443054,679.240051 489.912231,675.841797 481.921204,669.895081 
	C462.528687,655.463806 440.730774,653.211243 417.961273,658.214478 
	C391.437744,664.042725 369.999634,688.625610 367.863678,715.338440 
M545.049133,257.541870 
	C545.049133,270.252930 545.049133,282.963989 545.049133,296.663544 
	C549.517578,293.059235 553.383667,290.307587 556.763245,287.051025 
	C558.316406,285.554413 559.739380,283.094025 559.806091,281.025055 
	C560.116272,271.400452 559.686096,261.751282 560.024292,252.128601 
	C560.200012,247.129074 558.295410,245.832260 553.622498,245.976089 
	C544.153259,246.267517 545.047302,245.173599 545.041565,254.567032 
	C545.041138,255.231506 545.043640,255.895981 545.049133,257.541870 
M556.683228,602.136169 
	C553.068787,599.623779 549.454285,597.111328 545.326782,594.242310 
	C545.326782,601.354858 545.169739,607.637573 545.457520,613.899902 
	C545.515991,615.171814 547.126343,617.274475 548.237183,617.427612 
	C551.626343,617.894653 555.120972,617.597046 559.909485,617.597046 
	C558.913879,611.984314 558.087830,607.327148 556.683228,602.136169 
z"/>
<path fill="#1BAFCB" opacity="1.000000" stroke="none" 
	d="
M171.961884,228.347931 
	C171.325500,232.760178 170.434494,237.505081 169.782394,242.282578 
	C169.068085,247.515991 168.061890,252.779221 168.058868,258.029938 
	C167.966522,418.163208 167.983505,578.296509 167.966202,738.429810 
	C167.965988,740.411438 167.741791,742.393127 167.348343,744.686401 
	C166.736389,741.527649 166.103546,738.057373 166.102448,734.586792 
	C166.052231,577.521729 165.936356,420.456360 166.304230,263.392120 
	C166.331329,251.822159 169.893738,240.260483 171.961884,228.347931 
z"/>
<path fill="#009BBF" opacity="1.000000" stroke="none" 
	d="
M855.959839,736.513794 
	C855.581055,734.890564 855.035889,732.807373 855.035339,730.724121 
	C854.995972,576.615601 855.092651,422.506927 854.813965,268.398956 
	C854.792908,256.763062 852.122925,245.132217 850.690063,233.498337 
	C850.532043,232.215363 850.411865,230.927734 850.495361,229.357666 
	C852.501709,239.322067 855.821655,249.567947 855.842346,259.820496 
	C856.163086,418.564453 856.055786,577.309265 855.959839,736.513794 
z"/>
<path fill="#009BBF" opacity="1.000000" stroke="none" 
	d="
M729.522095,140.039520 
	C728.235962,140.413422 726.487915,140.961990 724.739746,140.962479 
	C580.869934,141.002686 437.000061,141.001160 293.130219,140.988174 
	C291.645294,140.988037 290.160400,140.795776 288.359283,140.431244 
	C318.506348,140.072037 348.969543,139.898453 379.432831,139.891159 
	C493.977600,139.863739 608.522339,139.890182 723.067139,139.899490 
	C725.064758,139.899658 727.062439,139.937912 729.522095,140.039520 
z"/>
<path fill="#009BBF" opacity="1.000000" stroke="none" 
	d="
M298.491150,863.903809 
	C299.783875,863.555420 301.538910,863.035095 303.294037,863.034607 
	C441.986969,862.996948 580.679932,862.998901 719.372864,863.012878 
	C721.023926,863.013062 722.674988,863.206970 724.642212,863.572754 
	C700.156799,863.888733 675.355225,863.986572 650.553589,863.988586 
	C533.353577,863.998291 416.153534,863.981689 298.491150,863.903809 
z"/>
<path fill="#009BBF" opacity="1.000000" stroke="none" 
	d="
M736.599243,140.141144 
	C736.109009,140.349228 735.258545,140.474243 734.219971,140.382721 
	C734.767578,140.130157 735.503235,140.094116 736.599243,140.141144 
z"/>
<path fill="#FDFEFE" opacity="1.000000" stroke="none" 
	d="
M773.776001,619.259521 
	C752.281738,597.168701 731.038330,575.333252 709.415894,553.108276 
	C701.944458,560.584106 694.106689,568.183044 686.548340,576.050354 
	C676.976440,586.013672 666.463806,594.418518 652.904114,598.315674 
	C624.641052,606.438721 599.304321,601.770203 578.127075,580.580261 
	C549.513000,551.948914 521.532532,522.675232 492.579803,494.394165 
	C468.099548,470.481812 465.666779,431.672668 487.854095,404.957062 
	C498.017517,392.719330 510.185150,382.128876 521.602539,370.953461 
	C542.792175,350.212921 564.002014,329.491272 585.381104,308.946594 
	C609.889038,285.395142 648.499512,283.159180 675.088074,304.183167 
	C683.530884,310.858948 690.691406,319.164948 698.380493,326.783722 
	C721.927551,350.115601 745.507263,373.415131 768.954407,396.847198 
	C783.966736,411.849792 791.511963,430.073120 789.821228,451.300629 
	C788.517944,467.664062 781.651794,481.811279 769.847168,493.569611 
	C760.307983,503.071442 751.248657,513.055176 741.754333,523.059265 
	C752.409790,533.339478 763.917847,544.354614 775.325378,555.472900 
	C786.532471,566.395874 798.081726,577.014954 808.663208,588.519409 
	C819.415405,600.209595 816.196533,616.430237 802.650513,623.304749 
	C793.059631,628.171997 781.563416,626.649841 773.776001,619.259521 
M713.041870,505.541901 
	C723.739197,495.033112 734.424988,484.512512 745.137695,474.019440 
	C752.951294,466.366028 758.698608,457.700287 759.006958,446.297241 
	C759.332092,434.272461 753.684937,425.029480 745.468628,416.923615 
	C717.471802,389.303162 689.468994,361.688751 661.537537,334.002258 
	C645.369995,317.976410 625.073242,316.584015 607.442871,331.074554 
	C600.263184,336.975586 593.967041,343.951935 587.271667,350.441833 
	C563.463135,373.519501 539.422424,396.364014 515.928162,419.757294 
	C499.602478,436.012756 499.505463,457.535095 515.239319,473.448883 
	C542.885742,501.411621 570.666504,529.243774 598.603027,556.916565 
	C617.578796,575.713379 643.052979,575.432007 661.981201,556.586243 
	C678.868652,539.772278 695.690613,522.892273 713.041870,505.541901 
z"/>
<path fill="#FDFEFE" opacity="1.000000" stroke="none" 
	d="
M771.753662,789.938904 
	C768.516357,791.263184 765.352051,792.837585 762.012756,793.812683 
	C760.175720,794.349121 757.990112,793.570068 756.054504,793.911133 
	C745.734802,795.729492 739.594971,790.846436 734.046753,782.494568 
	C718.980103,759.813843 703.145752,737.642944 687.590210,715.287598 
	C686.517761,713.746338 685.235168,712.351257 683.023865,711.224121 
	C683.023865,712.975220 683.023743,714.726318 683.023865,716.477417 
	C683.026123,739.798645 682.900330,763.121094 683.131653,786.440063 
	C683.181885,791.506104 680.796875,793.544312 676.470764,793.770996 
	C670.823242,794.066833 665.134521,794.093994 659.490540,793.768738 
	C655.276367,793.525818 652.694519,791.674866 652.716431,786.517822 
	C652.888550,746.039673 652.787842,705.560364 652.800171,665.081421 
	C652.802246,658.334412 653.478821,657.715942 660.150635,657.600464 
	C664.646790,657.522705 669.142639,657.423035 673.638977,657.354614 
	C679.370056,657.267517 683.673218,659.425903 687.046509,664.364380 
	C703.814331,688.912292 720.804932,713.308105 737.726929,737.750610 
	C738.741760,739.216309 739.843323,740.622009 742.017029,741.922485 
	C742.017029,740.235352 742.016968,738.548279 742.016968,736.861145 
	C742.017334,713.040161 742.011963,689.219116 742.022156,665.398132 
	C742.024780,659.327393 743.537842,657.620483 749.558411,657.479004 
	C754.712280,657.357971 759.899048,657.311707 765.020508,657.783752 
	C767.096619,657.975098 769.038147,659.627869 771.428955,661.298096 
	C771.878479,699.306396 771.950623,736.632080 771.989136,773.957825 
	C771.994568,779.284790 771.836243,784.611877 771.753662,789.938904 
z"/>
<path fill="#FDFEFE" opacity="1.000000" stroke="none" 
	d="
M533.796997,698.757935 
	C537.941833,687.525208 542.060852,676.699829 545.895264,665.774475 
	C547.786682,660.385071 551.048401,657.569519 556.929077,657.715515 
	C564.252319,657.897522 571.584595,657.873352 578.910095,657.757629 
	C583.793701,657.680481 586.422424,660.030579 588.075806,664.503601 
	C600.287903,697.542847 612.631775,730.533386 624.937683,763.537903 
	C627.536926,770.509155 630.192688,777.459595 632.743286,784.448486 
	C634.725830,789.880676 632.281799,793.612610 626.420349,793.846313 
	C621.262939,794.051819 616.087646,793.779968 610.926331,793.929382 
	C605.903503,794.074768 602.746826,791.711609 601.030457,787.179626 
	C598.981995,781.770874 596.894531,776.373169 595.021606,770.903076 
	C594.038879,768.032837 592.638062,766.677673 589.298096,766.722961 
	C574.803040,766.919434 560.302612,766.904968 545.806946,766.731201 
	C542.448975,766.690979 540.769470,767.705078 539.757080,770.973694 
	C538.095520,776.338867 535.856445,781.522278 533.993347,786.828918 
	C532.358276,791.486206 529.162231,793.827087 524.265991,793.865967 
	C519.267151,793.905701 514.264282,794.031677 509.269958,793.885559 
	C502.511230,793.687866 499.972107,789.986206 502.262695,783.794678 
	C512.706909,755.563904 523.186768,727.346436 533.796997,698.757935 
M552.559326,734.147095 
	C551.915100,736.288513 551.270874,738.429993 550.559814,740.793579 
	C562.033508,740.793579 572.892334,740.793579 584.243530,740.793579 
	C578.579651,725.207397 573.083557,710.082825 567.587402,694.958191 
	C567.193665,695.033569 566.799866,695.108887 566.406128,695.184265 
	C561.902100,707.924255 557.398132,720.664185 552.559326,734.147095 
z"/>
<path fill="#FDFEFE" opacity="1.000000" stroke="none" 
	d="
M292.372742,703.700928 
	C301.447449,707.268860 310.475311,710.093018 318.933044,714.115845 
	C327.542664,718.210876 336.241364,722.639465 343.755676,728.412781 
	C361.891449,742.346619 357.636353,771.487061 340.976166,784.078674 
	C331.366577,791.341553 320.449677,794.525818 308.555817,795.005920 
	C291.784576,795.682983 275.837036,792.893860 261.242706,784.148254 
	C260.247650,783.551941 259.235504,782.975464 258.289368,782.307556 
	C252.116669,777.949829 251.675369,775.983154 255.391296,769.556152 
	C255.973648,768.548889 256.486938,767.479736 257.205261,766.576965 
	C260.099030,762.940063 262.472687,757.479675 266.174530,756.320496 
	C269.410828,755.306946 274.232880,759.017944 278.243500,760.880493 
	C289.542877,766.127869 301.049103,770.126099 313.742340,766.961731 
	C320.052216,765.388733 323.533508,761.970093 323.857483,756.727539 
	C324.203735,751.124390 321.287750,746.907654 316.281860,744.952454 
	C307.680634,741.593079 298.636475,739.331787 290.139557,735.752014 
	C282.431335,732.504456 274.255066,729.255615 267.947174,724.009155 
	C250.352676,709.375061 252.184540,680.037964 270.790070,666.216980 
	C279.570374,659.694580 289.535156,656.510986 300.402252,655.958191 
	C316.452148,655.141907 331.796753,657.817078 346.117126,665.341003 
	C351.794434,668.323975 352.399109,670.194336 349.348450,676.057800 
	C347.213867,680.160522 344.821381,684.167725 342.163025,687.949829 
	C338.452179,693.229370 337.110474,693.386353 331.524475,690.035034 
	C321.967468,684.301331 311.706116,681.715881 300.570160,682.976624 
	C299.268005,683.124084 297.960663,683.400940 296.708618,683.788574 
	C285.783142,687.171143 283.782867,695.717102 292.372742,703.700928 
z"/>
<path fill="#FDFEFE" opacity="1.000000" stroke="none" 
	d="
M367.900269,714.894409 
	C369.999634,688.625610 391.437744,664.042725 417.961273,658.214478 
	C440.730774,653.211243 462.528687,655.463806 481.921204,669.895081 
	C489.912231,675.841797 490.443054,679.240051 484.336548,687.130493 
	C482.100952,690.019165 479.670807,692.794800 477.060822,695.347351 
	C473.139954,699.182007 470.489410,699.211731 466.190063,695.637451 
	C457.672577,688.556274 448.430054,683.723511 436.877014,683.909424 
	C417.743011,684.217285 401.932861,698.541809 399.948303,717.607666 
	C398.877075,727.898865 399.545746,737.869202 404.243927,747.235901 
	C414.545044,767.773071 441.448517,773.814758 461.291962,760.118652 
	C462.658905,759.175110 464.269012,758.374878 465.240601,757.105713 
	C468.522034,752.819458 471.585114,754.010376 474.714783,757.140015 
	C477.889526,760.314697 481.226501,763.352844 484.155121,766.742249 
	C488.694092,771.995300 488.337341,775.627502 482.926819,780.387451 
	C474.251556,788.019775 464.017944,792.767395 452.761566,794.750854 
	C430.639771,798.648743 410.090912,794.442871 391.990875,780.801880 
	C378.189087,770.400269 370.333221,756.158875 368.182404,739.152222 
	C367.192596,731.326050 367.916718,723.283081 367.900269,714.894409 
z"/>
<path fill="#F8FDFE" opacity="1.000000" stroke="none" 
	d="
M432.847198,612.758606 
	C429.158875,618.792175 420.398560,619.613037 414.901062,613.679932 
	C414.675079,611.105469 414.549896,609.276489 414.549561,607.447449 
	C414.535736,534.146790 414.516022,460.846100 414.535583,387.545410 
	C414.547913,341.400635 414.621216,295.255829 414.667175,249.111053 
	C419.312134,244.386581 428.192566,244.598541 432.270569,250.283020 
	C432.511536,254.035919 432.609222,257.032562 432.610016,260.029175 
	C432.628296,330.643036 432.614197,401.256927 432.653717,471.870789 
	C432.679993,518.833374 432.780121,565.796021 432.847198,612.758606 
z"/>
<path fill="#FBFEFE" opacity="1.000000" stroke="none" 
	d="
M245.425598,249.724609 
	C248.937973,246.165298 255.219421,244.630814 259.487152,246.993683 
	C261.126099,247.901093 262.665039,250.387375 262.834656,252.280975 
	C263.293304,257.400879 262.992889,262.588806 262.992859,267.749756 
	C262.992188,381.290680 262.984283,494.831635 263.022797,608.372559 
	C263.024048,612.041504 262.946167,615.476929 258.785095,616.933777 
	C253.678146,618.721863 248.264786,617.209045 245.352798,612.643555 
	C245.107178,499.357697 245.111526,386.773285 245.140823,274.188843 
	C245.142944,266.034058 245.326431,257.879364 245.425598,249.724609 
z"/>
<path fill="#FEFFFF" opacity="1.000000" stroke="none" 
	d="
M330.437225,615.941406 
	C326.376709,616.329163 322.304596,617.040283 318.263123,616.895508 
	C317.141418,616.855347 315.311829,614.343994 315.185394,612.849792 
	C314.779572,608.054260 315.010529,603.204224 315.010406,598.375183 
	C315.007568,483.477417 315.004761,368.579651 315.009399,253.681900 
	C315.009766,245.210373 314.223969,246.259521 322.508514,246.241638 
	C325.025513,246.236206 327.544586,247.182297 330.483551,248.334869 
	C330.935760,249.808334 330.994598,250.639542 330.994629,251.470734 
	C330.998444,371.323975 331.000183,491.177216 330.974365,611.030457 
	C330.974030,612.667480 330.624023,614.304443 330.437225,615.941406 
z"/>
<path fill="#FDFEFE" opacity="1.000000" stroke="none" 
	d="
M296.445282,615.946594 
	C292.091614,618.016296 287.804962,618.388123 283.334290,614.739990 
	C283.013397,523.656006 283.017548,433.273651 282.996155,342.891266 
	C282.988678,311.268005 282.918427,279.644714 282.876862,248.021454 
	C282.876862,248.021454 283.049255,247.632187 283.310028,247.305664 
	C283.783630,246.682358 283.996490,246.385605 284.209320,246.088837 
	C284.209320,246.088837 284.043243,246.062241 284.493347,246.110153 
	C288.616608,246.464554 292.289764,246.771042 295.962952,247.077530 
	C295.962952,247.077530 295.989563,247.011093 296.032532,247.280548 
	C296.357361,247.761002 296.639160,247.972000 296.920990,248.183014 
	C296.920990,248.183014 296.945892,248.035431 296.907349,248.501038 
	C296.888733,249.465607 296.926147,249.964584 296.926208,250.463562 
	C296.941101,370.815216 296.955170,491.166840 296.944000,611.518494 
	C296.943878,612.994507 296.618713,614.470581 296.445282,615.946594 
z"/>
<path fill="#FEFFFF" opacity="1.000000" stroke="none" 
	d="
M362.986420,614.986328 
	C359.550293,618.504272 355.231140,617.666199 351.291992,616.726379 
	C350.171661,616.459106 349.081818,613.353760 349.072784,611.544373 
	C348.931061,583.242004 348.965302,554.938782 348.966187,526.635742 
	C348.969086,436.065857 348.974487,345.495972 348.980438,254.926102 
	C348.981018,245.716675 353.251862,243.292557 362.345886,248.262573 
	C362.842896,250.447678 362.990356,251.939255 362.990417,253.430847 
	C362.996490,373.949341 362.991028,494.467834 362.986420,614.986328 
z"/>
<path fill="#FEFFFF" opacity="1.000000" stroke="none" 
	d="
M396.434448,613.056396 
	C395.202484,619.793274 389.889191,616.905334 386.160828,617.172913 
	C382.109497,617.463562 382.780701,614.084106 382.712708,611.521484 
	C382.673431,610.040955 382.669434,608.559509 382.631165,606.221130 
	C382.531433,604.179199 382.450073,602.994568 382.510590,601.389038 
	C382.558319,597.713989 382.464172,594.459717 382.479736,590.809204 
	C382.511169,589.875732 382.432953,589.338562 382.496948,588.378296 
	C382.551331,584.371033 382.463531,580.786926 382.497742,576.774109 
	C382.539551,575.169067 382.459320,573.992798 382.515930,572.381104 
	C382.554016,559.702026 382.455200,547.458374 382.480835,534.784424 
	C382.525757,533.172180 382.446289,531.990234 382.507782,530.374817 
	C382.558777,514.694580 382.468842,499.447937 382.499329,483.771545 
	C382.533112,482.165100 382.446442,480.988373 382.499084,479.444336 
	C382.547363,477.785187 382.456390,476.493347 382.482758,474.811157 
	C382.529022,473.887299 382.457947,473.353851 382.523376,472.393982 
	C382.559662,468.382843 382.459412,464.798187 382.482635,460.756287 
	C382.526489,457.468628 382.446869,454.638184 382.507568,451.374084 
	C382.546234,443.034637 382.444519,435.128906 382.461304,426.825623 
	C382.504181,425.885773 382.428558,425.343506 382.497070,424.369202 
	C382.541748,416.366058 382.442291,408.794983 382.472351,400.785248 
	C382.524292,398.834351 382.446686,397.322083 382.509308,395.375916 
	C382.560547,385.694275 382.471527,376.446533 382.503357,366.754425 
	C382.543335,364.479889 382.462494,362.649658 382.519409,360.384003 
	C382.560516,347.035248 382.463959,334.121979 382.495056,320.796692 
	C382.549225,319.533173 382.475739,318.681702 382.537140,317.392944 
	C382.570953,304.039764 382.469910,291.123840 382.483521,277.815369 
	C382.525879,276.887726 382.453613,276.352631 382.520569,275.382629 
	C382.565948,267.032013 382.472137,259.116272 382.479401,250.801117 
	C382.507172,249.864944 382.433899,249.328171 382.360596,248.791397 
	C384.890320,243.724091 389.428009,246.243347 392.959625,246.454269 
	C396.318237,246.654861 396.097870,250.050964 396.096985,252.789017 
	C396.085297,288.539612 396.111908,324.290222 396.140015,360.879761 
	C396.204498,362.493591 396.257874,363.268463 396.221375,364.501648 
	C396.120941,443.789307 396.106995,522.618713 396.111816,601.448059 
	C396.112000,604.606140 396.289856,607.764282 396.311218,611.277405 
	C396.303131,612.107117 396.368805,612.581726 396.434448,613.056396 
z"/>
<path fill="#FDFEFE" opacity="1.000000" stroke="none" 
	d="
M452.493042,246.084930 
	C462.134705,246.072144 471.779175,246.190643 481.416595,245.981262 
	C485.212677,245.898788 486.826843,247.034027 486.786591,251.040665 
	C486.454224,284.116272 486.295013,317.193665 485.907867,350.268463 
	C485.886017,352.134247 484.731720,354.368378 483.408112,355.776550 
	C473.282654,366.548615 462.984314,377.158203 452.388763,387.433105 
	C452.036438,342.034821 452.029205,297.021698 452.053131,252.008575 
	C452.054169,250.033936 452.339935,248.059479 452.493042,246.084930 
z"/>
<path fill="#FEFFFF" opacity="1.000000" stroke="none" 
	d="
M484.793732,533.077515 
	C485.193054,534.950989 485.934875,536.823425 485.940125,538.697998 
	C486.012207,564.435181 485.982727,590.172607 485.499268,616.457520 
	C474.372803,616.964905 463.725311,616.924805 453.077789,616.884705 
	C453.077789,616.884705 453.025604,616.979675 452.967651,616.495361 
	C452.829865,614.521118 452.680756,613.031128 452.680328,611.541199 
	C452.669434,574.479309 452.674194,537.417358 452.676178,500.355438 
	C452.876434,500.488739 453.076691,500.622040 453.676239,501.150330 
	C454.359924,501.757507 454.644348,501.969696 454.928802,502.181885 
	C455.697357,503.063141 456.465912,503.944397 457.606903,505.248169 
	C458.587494,506.200958 459.195587,506.731171 459.803711,507.261414 
	C459.803711,507.261414 459.861908,507.140991 459.883972,507.424622 
	C460.195221,507.897278 460.484406,508.086243 460.773560,508.275238 
	C460.773560,508.275238 460.862335,508.124634 460.866638,508.426331 
	C461.146942,508.926453 461.422974,509.124939 461.699005,509.323395 
	C461.699005,509.323395 461.902374,509.029785 461.872406,509.409241 
	C462.126892,509.969757 462.411346,510.150787 462.695770,510.331818 
	C462.695770,510.331818 462.908691,510.050079 462.871735,510.420959 
	C463.115417,510.975220 463.396057,511.158539 463.676727,511.341858 
	C463.676727,511.341858 463.900208,511.004974 463.855835,511.402832 
	C464.078705,511.989716 464.345947,512.178772 464.613159,512.367798 
	C464.613159,512.367798 465.019348,512.138611 464.910767,512.492676 
	C464.995789,513.136902 465.264160,513.313110 465.607391,513.375366 
	C465.607391,513.375366 465.825958,513.295593 465.814575,513.609863 
	C466.357086,514.428589 466.910980,514.933044 467.464905,515.437500 
	C467.464905,515.437500 467.563477,515.446716 467.665375,515.688416 
	C467.941071,516.174255 468.172791,516.334961 468.462433,516.412231 
	C468.462433,516.412231 468.559021,516.444763 468.657410,516.684937 
	C468.921936,517.166504 469.145599,517.328613 469.426788,517.411316 
	C469.426788,517.411316 469.528442,517.473816 469.636902,517.707275 
	C469.901184,518.169983 470.111938,518.324097 470.377655,518.403076 
	C470.377655,518.403076 470.486298,518.515015 470.611572,518.742188 
	C470.882050,519.183044 471.079010,519.324768 471.327759,519.394531 
	C471.327759,519.394531 471.432526,519.514832 471.601257,519.806885 
	C472.166840,520.417725 472.563660,520.736511 472.960480,521.055237 
	C472.960480,521.055237 473.000671,521.002930 473.070740,521.300354 
	C473.743652,522.088318 474.346527,522.578857 474.949402,523.069397 
	C474.949402,523.069397 474.995209,523.005371 475.044647,523.274292 
	C475.382690,523.732178 475.671326,523.921082 475.959930,524.110046 
	C476.013824,524.440552 476.182312,524.695312 476.795105,525.233521 
	C477.726471,526.093567 478.328094,526.594482 478.929688,527.095398 
	C478.929688,527.095398 478.992798,527.008972 479.026337,527.282104 
	C479.452972,527.864868 479.846069,528.174500 480.239166,528.484070 
	C480.239166,528.484070 480.375183,528.616882 480.572632,528.904480 
	C481.158539,529.511169 481.546967,529.830322 481.935425,530.149414 
	C482.390503,530.718140 482.845581,531.286804 483.639099,532.206604 
	C484.249603,532.730957 484.521667,532.904236 484.793732,533.077515 
z"/>
<path fill="#F8FDFE" opacity="1.000000" stroke="none" 
	d="
M504.201904,247.051147 
	C510.601593,246.720886 516.998352,246.208786 523.401733,246.105331 
	C531.841675,245.968948 530.913879,245.270203 530.917542,253.488174 
	C530.925232,270.956116 530.994690,288.425262 530.769897,305.890472 
	C530.742126,308.043488 529.611511,310.725037 528.076416,312.224152 
	C520.488220,319.634552 512.592102,326.729614 504.472321,333.486023 
	C504.160706,304.374512 504.181305,275.712830 504.201904,247.051147 
z"/>
<path fill="#F8FDFE" opacity="1.000000" stroke="none" 
	d="
M504.438599,554.095337 
	C512.790955,562.427429 521.181885,570.721680 529.440735,579.145447 
	C530.347595,580.070374 530.915161,581.733887 530.929871,583.062744 
	C531.044495,593.375977 531.046265,603.692078 530.890930,614.004395 
	C530.873962,615.132324 529.637634,617.215271 528.975403,617.211792 
	C520.922791,617.169739 512.871948,616.819458 504.525604,615.853149 
	C504.299927,594.803162 504.369263,574.449219 504.438599,554.095337 
z"/>
<path fill="#FBFEFE" opacity="1.000000" stroke="none" 
	d="
M545.046997,257.051147 
	C545.043640,255.895981 545.041138,255.231506 545.041565,254.567032 
	C545.047302,245.173599 544.153259,246.267517 553.622498,245.976089 
	C558.295410,245.832260 560.200012,247.129074 560.024292,252.128601 
	C559.686096,261.751282 560.116272,271.400452 559.806091,281.025055 
	C559.739380,283.094025 558.316406,285.554413 556.763245,287.051025 
	C553.383667,290.307587 549.517578,293.059235 545.049133,296.663544 
	C545.049133,282.963989 545.049133,270.252930 545.046997,257.051147 
z"/>
<path fill="#009BBF" opacity="1.000000" stroke="none" 
	d="
M382.379089,572.816528 
	C382.459320,573.992798 382.539551,575.169067 382.352692,577.123352 
	C382.175323,581.534729 382.265045,585.168091 382.354736,588.801453 
	C382.432953,589.338562 382.511169,589.875732 382.337036,591.153809 
	C382.179352,595.199890 382.274048,598.504883 382.368713,601.809937 
	C382.450073,602.994568 382.531433,604.179199 382.489502,605.797668 
	C382.140106,608.807007 381.913940,611.382507 381.687744,613.958008 
	C381.458496,613.948914 381.229248,613.939758 381.000000,613.930603 
	C381.000000,612.326172 381.000000,610.721802 381.000000,609.117371 
	C381.000000,490.158203 380.999908,371.199066 381.000916,252.239899 
	C381.000946,250.910614 381.009033,249.581238 381.032593,248.252228 
	C381.034882,248.125092 381.174988,248.000366 381.251099,247.874512 
	C381.514038,248.036133 381.777008,248.197784 382.200256,248.575409 
	C382.433899,249.328171 382.507172,249.864944 382.331848,251.161407 
	C382.182617,259.886566 382.281982,267.852051 382.381348,275.817505 
	C382.453613,276.352631 382.525879,276.887726 382.338470,278.175446 
	C382.186615,291.895416 382.294434,304.862823 382.402283,317.830200 
	C382.475739,318.681702 382.549225,319.533173 382.350159,321.156555 
	C382.178986,334.892120 382.280334,347.855804 382.381683,360.819458 
	C382.462494,362.649658 382.543335,364.479889 382.354004,367.113770 
	C382.178894,377.214905 382.273987,386.512360 382.369080,395.809814 
	C382.446686,397.322083 382.524292,398.834351 382.334778,401.146362 
	C382.162750,409.564514 382.257843,417.182861 382.352936,424.801239 
	C382.428558,425.343506 382.504181,425.885773 382.323547,427.186798 
	C382.167236,435.899628 382.267212,443.853699 382.367218,451.807770 
	C382.446869,454.638184 382.526489,457.468628 382.342468,461.106476 
	C382.181549,465.549408 382.284210,469.184906 382.386841,472.820404 
	C382.457947,473.353851 382.529022,473.887299 382.354095,475.076416 
	C382.191986,477.091949 382.275909,478.451782 382.359802,479.811646 
	C382.446442,480.988373 382.533112,482.165100 382.351074,484.131073 
	C382.177246,500.216339 382.272064,515.512329 382.366852,530.808350 
	C382.446289,531.990234 382.525757,533.172180 382.338989,535.144958 
	C382.174896,548.229431 382.276978,560.522949 382.379089,572.816528 
z"/>
<path fill="#009BBF" opacity="1.000000" stroke="none" 
	d="
M396.311249,364.043335 
	C396.257874,363.268463 396.204498,362.493591 396.230957,361.337341 
	C396.546143,359.013367 396.984222,357.071075 396.986603,355.128235 
	C397.027557,321.972534 397.014526,288.816803 397.013428,255.661072 
	C397.013367,253.856400 397.013428,252.051712 397.013428,250.247040 
	C397.340546,250.240433 397.667664,250.233841 397.994781,250.227234 
	C397.994781,251.686401 397.994781,253.145554 397.994812,254.604721 
	C397.995056,372.732422 397.998718,490.860107 397.954895,608.987793 
	C397.954376,610.415955 397.342651,611.843872 396.725342,613.164185 
	C396.368805,612.581726 396.303131,612.107117 396.525513,610.934204 
	C396.882172,609.410034 397.010834,608.584106 397.010925,607.758118 
	C397.019501,527.962463 397.022034,448.166779 396.988373,368.371124 
	C396.987762,366.928436 396.546783,365.485931 396.311249,364.043335 
z"/>
<path fill="#009BBF" opacity="1.000000" stroke="none" 
	d="
M282.605286,248.333115 
	C282.918427,279.644714 282.988678,311.268005 282.996155,342.891266 
	C283.017548,433.273651 283.013397,523.656006 283.020660,614.505615 
	C282.681335,614.142700 282.042511,613.312744 282.042206,612.482483 
	C281.998047,492.020477 281.999573,371.558472 282.014130,251.096481 
	C282.014221,250.279236 282.222626,249.462006 282.605286,248.333115 
z"/>
<path fill="#009BBF" opacity="1.000000" stroke="none" 
	d="
M363.273987,615.090210 
	C362.991028,494.467834 362.996490,373.949341 362.990417,253.430847 
	C362.990356,251.939255 362.842896,250.447678 362.604553,248.510681 
	C362.962860,250.158707 363.931793,252.251694 363.933777,254.345596 
	C364.010925,336.402039 364.000244,418.458557 364.000488,500.515076 
	C364.000610,537.132568 364.004974,573.750122 363.980286,610.367615 
	C363.979218,611.976501 363.707336,613.585266 363.273987,615.090210 
z"/>
<path fill="#009BBF" opacity="1.000000" stroke="none" 
	d="
M330.836731,615.754395 
	C330.624023,614.304443 330.974030,612.667480 330.974365,611.030457 
	C331.000183,491.177216 330.998444,371.323975 330.994629,251.470734 
	C330.994598,250.639542 330.935760,249.808334 330.807312,248.521027 
	C331.139374,249.555847 331.943573,251.046600 331.944305,252.537735 
	C332.003204,372.117432 332.001984,491.697174 331.968445,611.276917 
	C331.968048,612.707092 331.490875,614.137207 330.836731,615.754395 
z"/>
<path fill="#009BBF" opacity="1.000000" stroke="none" 
	d="
M296.843628,615.757874 
	C296.618713,614.470581 296.943878,612.994507 296.944000,611.518494 
	C296.955170,491.166840 296.941101,370.815216 296.926208,250.463562 
	C296.926147,249.964584 296.888733,249.465607 296.832550,248.498596 
	C297.198761,249.709625 297.952759,251.388535 297.953552,253.067795 
	C298.008209,372.304016 298.005798,491.540283 297.970886,610.776550 
	C297.970428,612.374146 297.495483,613.971619 296.843628,615.757874 
z"/>
<path fill="#009BBF" opacity="1.000000" stroke="none" 
	d="
M414.252777,249.266602 
	C414.621216,295.255829 414.547913,341.400635 414.535583,387.545410 
	C414.516022,460.846100 414.535736,534.146790 414.549561,607.447449 
	C414.549896,609.276489 414.675079,611.105469 414.741699,613.395874 
	C414.161621,611.990784 413.081604,610.125732 413.076172,608.257568 
	C412.974823,573.132263 413.000336,538.006592 413.000336,502.881012 
	C413.000336,420.477386 412.994781,338.073761 413.036285,255.670135 
	C413.037323,253.587341 413.559326,251.504791 414.252777,249.266602 
z"/>
<path fill="#009BBF" opacity="1.000000" stroke="none" 
	d="
M245.065857,250.012421 
	C245.326431,257.879364 245.142944,266.034058 245.140823,274.188843 
	C245.111526,386.773285 245.107178,499.357697 245.093140,612.401855 
	C244.726318,611.419373 244.046280,609.977478 244.045227,608.534973 
	C243.993439,537.222046 243.999939,465.909088 244.000000,394.596130 
	C244.000031,348.442627 243.991440,302.289154 244.029907,256.135681 
	C244.031540,254.190338 244.470734,252.245361 245.065857,250.012421 
z"/>
<path fill="#009BBF" opacity="1.000000" stroke="none" 
	d="
M433.105347,612.939087 
	C432.780121,565.796021 432.679993,518.833374 432.653717,471.870789 
	C432.614197,401.256927 432.628296,330.643036 432.610016,260.029175 
	C432.609222,257.032562 432.511536,254.035919 432.438660,250.578949 
	C432.946228,252.196152 433.934021,254.273300 433.935791,256.351288 
	C434.012054,345.590759 434.000610,434.830292 434.000214,524.069824 
	C434.000092,552.206909 434.010925,580.343994 433.974030,608.481018 
	C433.971985,610.027527 433.576050,611.573425 433.105347,612.939087 
z"/>
<path fill="#F8FDFE" opacity="1.000000" stroke="none" 
	d="
M556.972473,602.403076 
	C558.087830,607.327148 558.913879,611.984314 559.909485,617.597046 
	C555.120972,617.597046 551.626343,617.894653 548.237183,617.427612 
	C547.126343,617.274475 545.515991,615.171814 545.457520,613.899902 
	C545.169739,607.637573 545.326782,601.354858 545.326782,594.242310 
	C549.454285,597.111328 553.068787,599.623779 556.972473,602.403076 
z"/>
<path fill="#1BAFCB" opacity="1.000000" stroke="none" 
	d="
M452.367798,500.289307 
	C452.674194,537.417358 452.669434,574.479309 452.680328,611.541199 
	C452.680756,613.031128 452.829865,614.521118 453.013031,616.465698 
	C452.417053,615.675171 451.110535,614.431824 451.106842,613.184509 
	C450.997894,576.544189 451.010193,539.903442 451.062195,503.262878 
	C451.063629,502.249176 451.712494,501.236359 452.367798,500.289307 
z"/>
<path fill="#009BBF" opacity="1.000000" stroke="none" 
	d="
M452.101074,246.274750 
	C452.339935,248.059479 452.054169,250.033936 452.053131,252.008575 
	C452.029205,297.021698 452.036438,342.034821 452.064880,387.514771 
	C451.727020,386.445953 451.045197,384.910675 451.043274,383.374542 
	C450.987549,339.172974 450.993317,294.971313 451.031128,250.769714 
	C451.032349,249.334488 451.473206,247.899612 452.101074,246.274750 
z"/>
<path fill="#009BBF" opacity="1.000000" stroke="none" 
	d="
M772.104980,789.703735 
	C771.836243,784.611877 771.994568,779.284790 771.989136,773.957825 
	C771.950623,736.632080 771.878479,699.306396 771.672974,661.534668 
	C772.018921,662.364685 772.934814,663.639832 772.937073,664.916687 
	C773.010315,705.640320 772.998230,746.364136 772.970886,787.087891 
	C772.970398,787.881531 772.635254,788.674988 772.104980,789.703735 
z"/>
<path fill="#009BBF" opacity="1.000000" stroke="none" 
	d="
M503.859009,247.296417 
	C504.181305,275.712830 504.160706,304.374512 504.131531,333.502563 
	C503.748749,332.770172 503.050720,331.572113 503.047974,330.372467 
	C502.986938,303.560760 502.998016,276.748840 503.024963,249.936981 
	C503.025757,249.138397 503.345215,248.340134 503.859009,247.296417 
z"/>
<path fill="#1BAFCB" opacity="1.000000" stroke="none" 
	d="
M453.140839,617.289917 
	C463.725311,616.924805 474.372803,616.964905 485.478516,616.914795 
	C484.771088,617.541504 483.616364,618.858887 482.438049,618.880371 
	C473.336426,619.046204 464.230011,618.986633 455.126007,618.899841 
	C454.481537,618.893677 453.844421,618.114746 453.140839,617.289917 
z"/>
<path fill="#009BBF" opacity="1.000000" stroke="none" 
	d="
M504.053528,554.289062 
	C504.369263,574.449219 504.299927,594.803162 504.231750,615.638916 
	C503.822113,614.937500 503.058014,613.755615 503.053406,612.570740 
	C502.981018,593.983276 502.998596,575.395508 503.037354,556.807861 
	C503.038971,556.032349 503.448792,555.257812 504.053528,554.289062 
z"/>
<path fill="#009BBF" opacity="1.000000" stroke="none" 
	d="
M295.890747,246.677811 
	C292.289764,246.771042 288.616608,246.464554 284.491821,246.194229 
	C287.966309,246.246292 291.892426,246.262192 295.890747,246.677811 
z"/>
<path fill="#1BAFCB" opacity="1.000000" stroke="none" 
	d="
M478.908997,526.759399 
	C478.328094,526.594482 477.726471,526.093567 477.015198,525.315430 
	C477.566467,525.499878 478.227356,525.961670 478.908997,526.759399 
z"/>
<path fill="#1BAFCB" opacity="1.000000" stroke="none" 
	d="
M474.923157,522.739197 
	C474.346527,522.578857 473.743652,522.088318 473.042908,521.317993 
	C473.595642,521.495117 474.246277,521.952087 474.923157,522.739197 
z"/>
<path fill="#1BAFCB" opacity="1.000000" stroke="none" 
	d="
M459.752228,506.941101 
	C459.195587,506.731171 458.587494,506.200958 457.870422,505.381561 
	C458.407867,505.601868 459.054291,506.111328 459.752228,506.941101 
z"/>
<path fill="#1BAFCB" opacity="1.000000" stroke="none" 
	d="
M467.538483,515.101440 
	C466.910980,514.933044 466.357086,514.428589 465.701355,513.656799 
	C466.270416,513.848083 466.941223,514.306702 467.538483,515.101440 
z"/>
<path fill="#1BAFCB" opacity="1.000000" stroke="none" 
	d="
M472.938293,520.731445 
	C472.563660,520.736511 472.166840,520.417725 471.645630,519.873169 
	C471.986237,519.900818 472.451172,520.154236 472.938293,520.731445 
z"/>
<path fill="#1BAFCB" opacity="1.000000" stroke="none" 
	d="
M480.355927,528.184509 
	C479.846069,528.174500 479.452972,527.864868 478.982849,527.313293 
	C479.428131,527.342468 479.950409,527.613708 480.355927,528.184509 
z"/>
<path fill="#1BAFCB" opacity="1.000000" stroke="none" 
	d="
M481.915894,529.817871 
	C481.546967,529.830322 481.158539,529.511169 480.637299,528.974182 
	C480.968445,528.999634 481.432404,529.242920 481.915894,529.817871 
z"/>
<path fill="#1BAFCB" opacity="1.000000" stroke="none" 
	d="
M484.984039,532.935913 
	C484.521667,532.904236 484.249603,532.730957 483.890564,532.323120 
	C484.260498,532.323792 484.717407,532.559082 484.984039,532.935913 
z"/>
<path fill="#1BAFCB" opacity="1.000000" stroke="none" 
	d="
M454.852722,501.924561 
	C454.644348,501.969696 454.359924,501.757507 454.012817,501.280426 
	C454.225616,501.232758 454.501129,501.449982 454.852722,501.924561 
z"/>
<path fill="#009BBF" opacity="1.000000" stroke="none" 
	d="
M283.938477,246.181793 
	C283.996490,246.385605 283.783630,246.682358 283.311768,247.092804 
	C283.257721,246.895905 283.462677,246.585342 283.938477,246.181793 
z"/>
<path fill="#1BAFCB" opacity="1.000000" stroke="none" 
	d="
M460.727570,507.997925 
	C460.484406,508.086243 460.195221,507.897278 459.824097,507.454346 
	C460.055267,507.373840 460.368408,507.547211 460.727570,507.997925 
z"/>
<path fill="#1BAFCB" opacity="1.000000" stroke="none" 
	d="
M461.679504,509.038940 
	C461.422974,509.124939 461.146942,508.926453 460.795044,508.476440 
	C461.032776,508.401459 461.346405,508.578003 461.679504,509.038940 
z"/>
<path fill="#009BBF" opacity="1.000000" stroke="none" 
	d="
M296.841095,247.924301 
	C296.639160,247.972000 296.357361,247.761002 295.997498,247.287796 
	C296.200043,247.238922 296.480621,247.452255 296.841095,247.924301 
z"/>
<path fill="#1BAFCB" opacity="1.000000" stroke="none" 
	d="
M462.672607,510.044556 
	C462.411346,510.150787 462.126892,509.969757 461.755737,509.544495 
	C461.995850,509.452576 462.322662,509.604919 462.672607,510.044556 
z"/>
<path fill="#1BAFCB" opacity="1.000000" stroke="none" 
	d="
M463.660217,511.053406 
	C463.396057,511.158539 463.115417,510.975220 462.749756,510.548645 
	C462.991058,510.458557 463.317383,510.611755 463.660217,511.053406 
z"/>
<path fill="#1BAFCB" opacity="1.000000" stroke="none" 
	d="
M464.619385,512.077454 
	C464.345947,512.178772 464.078705,511.989716 463.731476,511.562256 
	C463.976166,511.478241 464.300903,511.632660 464.619385,512.077454 
z"/>
<path fill="#1BAFCB" opacity="1.000000" stroke="none" 
	d="
M465.613159,513.083740 
	C465.264160,513.313110 464.995789,513.136902 464.713440,512.617554 
	C464.956085,512.522949 465.287537,512.657471 465.613159,513.083740 
z"/>
<path fill="#1BAFCB" opacity="1.000000" stroke="none" 
	d="
M468.517761,516.124756 
	C468.172791,516.334961 467.941071,516.174255 467.675934,515.736755 
	C467.914093,515.641357 468.243591,515.739319 468.517761,516.124756 
z"/>
<path fill="#1BAFCB" opacity="1.000000" stroke="none" 
	d="
M469.494507,517.127319 
	C469.145599,517.328613 468.921936,517.166504 468.668915,516.734619 
	C468.908752,516.643860 469.235474,516.743591 469.494507,517.127319 
z"/>
<path fill="#1BAFCB" opacity="1.000000" stroke="none" 
	d="
M470.460846,518.126465 
	C470.111938,518.324097 469.901184,518.169983 469.662781,517.760986 
	C469.901459,517.670837 470.222748,517.760376 470.460846,518.126465 
z"/>
<path fill="#1BAFCB" opacity="1.000000" stroke="none" 
	d="
M471.426819,519.127808 
	C471.079010,519.324768 470.882050,519.183044 470.662018,518.801636 
	C470.900085,518.709656 471.212982,518.785400 471.426819,519.127808 
z"/>
<path fill="#1BAFCB" opacity="1.000000" stroke="none" 
	d="
M475.868591,523.863525 
	C475.671326,523.921082 475.382690,523.732178 475.009338,523.291748 
	C475.208832,523.232544 475.493011,523.424805 475.868591,523.863525 
z"/>
<path fill="#01AECB" opacity="1.000000" stroke="none" 
	d="
M712.791626,505.791687 
	C695.690613,522.892273 678.868652,539.772278 661.981201,556.586243 
	C643.052979,575.432007 617.578796,575.713379 598.603027,556.916565 
	C570.666504,529.243774 542.885742,501.411621 515.239319,473.448883 
	C499.505463,457.535095 499.602478,436.012756 515.928162,419.757294 
	C539.422424,396.364014 563.463135,373.519501 587.271667,350.441833 
	C593.967041,343.951935 600.263184,336.975586 607.442871,331.074554 
	C625.073242,316.584015 645.369995,317.976410 661.537537,334.002258 
	C689.468994,361.688751 717.471802,389.303162 745.468628,416.923615 
	C753.684937,425.029480 759.332092,434.272461 759.006958,446.297241 
	C758.698608,457.700287 752.951294,466.366028 745.137695,474.019440 
	C734.424988,484.512512 723.739197,495.033112 712.791626,505.791687 
z"/>
<path fill="#01AECB" opacity="1.000000" stroke="none" 
	d="
M552.726685,733.775635 
	C557.398132,720.664185 561.902100,707.924255 566.406128,695.184265 
	C566.799866,695.108887 567.193665,695.033569 567.587402,694.958191 
	C573.083557,710.082825 578.579651,725.207397 584.243530,740.793579 
	C572.892334,740.793579 562.033508,740.793579 550.559814,740.793579 
	C551.270874,738.429993 551.915100,736.288513 552.726685,733.775635 
z"/>
<path fill="#02AECB" opacity="1.000000" stroke="none" 
	d="
M396.221375,364.501648 
	C396.546783,365.485931 396.987762,366.928436 396.988373,368.371124 
	C397.022034,448.166779 397.019501,527.962463 397.010925,607.758118 
	C397.010834,608.584106 396.882172,609.410034 396.599243,610.579224 
	C396.289856,607.764282 396.112000,604.606140 396.111816,601.448059 
	C396.106995,522.618713 396.120941,443.789307 396.221375,364.501648 
z"/>
<path fill="#02AECB" opacity="1.000000" stroke="none" 
	d="
M382.507782,530.374817 
	C382.272064,515.512329 382.177246,500.216339 382.230652,484.560791 
	C382.468842,499.447937 382.558777,514.694580 382.507782,530.374817 
z"/>
<path fill="#02AECB" opacity="1.000000" stroke="none" 
	d="
M382.519409,360.384003 
	C382.280334,347.855804 382.178986,334.892120 382.222504,321.568573 
	C382.463959,334.121979 382.560516,347.035248 382.519409,360.384003 
z"/>
<path fill="#02AECB" opacity="1.000000" stroke="none" 
	d="
M382.537140,317.392944 
	C382.294434,304.862823 382.186615,291.895416 382.223816,278.567963 
	C382.469910,291.123840 382.570953,304.039764 382.537140,317.392944 
z"/>
<path fill="#02AECB" opacity="1.000000" stroke="none" 
	d="
M382.515930,572.381104 
	C382.276978,560.522949 382.174896,548.229431 382.214600,535.575317 
	C382.455200,547.458374 382.554016,559.702026 382.515930,572.381104 
z"/>
<path fill="#02AECB" opacity="1.000000" stroke="none" 
	d="
M382.509308,395.375916 
	C382.273987,386.512360 382.178894,377.214905 382.233154,367.558105 
	C382.471527,376.446533 382.560547,385.694275 382.509308,395.375916 
z"/>
<path fill="#02AECB" opacity="1.000000" stroke="none" 
	d="
M382.507568,451.374084 
	C382.267212,443.853699 382.167236,435.899628 382.205017,427.584351 
	C382.444519,435.128906 382.546234,443.034637 382.507568,451.374084 
z"/>
<path fill="#02AECB" opacity="1.000000" stroke="none" 
	d="
M382.520569,275.382629 
	C382.281982,267.852051 382.182617,259.886566 382.230774,251.560822 
	C382.472137,259.116272 382.565948,267.032013 382.520569,275.382629 
z"/>
<path fill="#02AECB" opacity="1.000000" stroke="none" 
	d="
M382.497070,424.369202 
	C382.257843,417.182861 382.162750,409.564514 382.205261,401.585022 
	C382.442291,408.794983 382.541748,416.366058 382.497070,424.369202 
z"/>
<path fill="#02AECB" opacity="1.000000" stroke="none" 
	d="
M382.523376,472.393982 
	C382.284210,469.184906 382.181549,465.549408 382.218994,461.563721 
	C382.459412,464.798187 382.559662,468.382843 382.523376,472.393982 
z"/>
<path fill="#02AECB" opacity="1.000000" stroke="none" 
	d="
M382.496948,588.378296 
	C382.265045,585.168091 382.175323,581.534729 382.230682,577.552124 
	C382.463531,580.786926 382.551331,584.371033 382.496948,588.378296 
z"/>
<path fill="#02AECB" opacity="1.000000" stroke="none" 
	d="
M382.510590,601.389038 
	C382.274048,598.504883 382.179352,595.199890 382.227356,591.550171 
	C382.464172,594.459717 382.558319,597.713989 382.510590,601.389038 
z"/>
<path fill="#02AECB" opacity="1.000000" stroke="none" 
	d="
M382.499084,479.444336 
	C382.275909,478.451782 382.191986,477.091949 382.236755,475.466797 
	C382.456390,476.493347 382.547363,477.785187 382.499084,479.444336 
z"/>
</svg>